HIERARCHY
ROOT Hips
{
	OFFSET 0.00000 0.00000 0.00000
	CHANNELS 6 Xposition Yposition Zposition Zrotation Yrotation Xrotation 
	JOINT LHipJoint
	{
		OFFSET 0 0 0
		CHANNELS 3 Zrotation Yrotation Xrotation
		JOINT LeftUpLeg
		{
			OFFSET 1.84395 -1.68683 0.74144
			CHANNELS 3 Zrotation Yrotation Xrotation
			JOINT LeftLeg
			{
				OFFSET 2.27037 -6.23779 0.00000
				CHANNELS 3 Zrotation Yrotation Xrotation
				JOINT LeftFoot
				{
					OFFSET 2.56918 -7.05877 0.00000
					CHANNELS 3 Zrotation Yrotation Xrotation
					JOINT LeftToeBase
					{
						OFFSET 0.22276 -0.61202 1.71784
						CHANNELS 3 Zrotation Yrotation Xrotation
						End Site
						{
							OFFSET 0.00000 -0.00000 0.91613
						}
					}
				}
			}
		}
	}
	JOINT RHipJoint
	{
		OFFSET 0 0 0
		CHANNELS 3 Zrotation Yrotation Xrotation
		JOINT RightUpLeg
		{
			OFFSET -1.76833 -1.68684 0.74144
			CHANNELS 3 Zrotation Yrotation Xrotation
			JOINT RightLeg
			{
				OFFSET -2.49360 -6.85110 0.00000
				CHANNELS 3 Zrotation Yrotation Xrotation
				JOINT RightFoot
				{
					OFFSET -2.55538 -7.02085 0.00000
					CHANNELS 3 Zrotation Yrotation Xrotation
					JOINT RightToeBase
					{
						OFFSET -0.21516 -0.59115 1.68050
						CHANNELS 3 Zrotation Yrotation Xrotation
						End Site
						{
							OFFSET -0.00000 -0.00000 0.89604
						}
					}
				}
			}
		}
	}
	JOINT LowerBack
	{
		OFFSET 0 0 0
		CHANNELS 3 Zrotation Yrotation Xrotation
		JOINT Spine
		{
			OFFSET 0.06382 1.72312 -0.19613
			CHANNELS 3 Zrotation Yrotation Xrotation
			JOINT Spine1
			{
				OFFSET -0.00055 1.73507 0.23859
				CHANNELS 3 Zrotation Yrotation Xrotation
				JOINT Neck
				{
					OFFSET 0 0 0
					CHANNELS 3 Zrotation Yrotation Xrotation
					JOINT Neck1
					{
						OFFSET 0.03638 1.65562 0.09633
						CHANNELS 3 Zrotation Yrotation Xrotation
						JOINT Head
						{
							OFFSET 0.06388 1.62807 -0.32386
							CHANNELS 3 Zrotation Yrotation Xrotation
							End Site
							{
								OFFSET 0.00995 1.67644 -0.12021
							}
						}
					}
				}
				JOINT LeftShoulder
				{
					OFFSET 0 0 0
					CHANNELS 3 Zrotation Yrotation Xrotation
					JOINT LeftArm
					{
						OFFSET 3.09648 1.42991 0.28122
						CHANNELS 3 Zrotation Yrotation Xrotation
						JOINT LeftForeArm
						{
							OFFSET 5.11878 -0.00000 -0.00000
							CHANNELS 3 Zrotation Yrotation Xrotation
							JOINT LeftHand
							{
								OFFSET 3.59971 -0.00000 0.00000
								CHANNELS 3 Zrotation Yrotation Xrotation
								JOINT LeftFingerBase
								{
									OFFSET 0 0 0
									CHANNELS 3 Zrotation Yrotation Xrotation
									JOINT LeftHandIndex1
									{
										OFFSET 0.62877 -0.00000 0.00000
										CHANNELS 3 Zrotation Yrotation Xrotation
										End Site
										{
											OFFSET 0.50693 -0.00000 0.00000
										}
									}
								}
								JOINT LThumb
								{
									OFFSET 0 0 0
									CHANNELS 3 Zrotation Yrotation Xrotation
									End Site
									{
										OFFSET 0.51467 -0.00000 0.51467
									}
								}
							}
						}
					}
				}
				JOINT RightShoulder
				{
					OFFSET 0 0 0
					CHANNELS 3 Zrotation Yrotation Xrotation
					JOINT RightArm
					{
						OFFSET -3.33565 1.14597 0.05047
						CHANNELS 3 Zrotation Yrotation Xrotation
						JOINT RightForeArm
						{
							OFFSET -5.49020 -0.00000 0.00000
							CHANNELS 3 Zrotation Yrotation Xrotation
							JOINT RightHand
							{
								OFFSET -3.20659 -0.00000 -0.00000
								CHANNELS 3 Zrotation Yrotation Xrotation
								JOINT RightFingerBase
								{
									OFFSET 0 0 0
									CHANNELS 3 Zrotation Yrotation Xrotation
									JOINT RightHandIndex1
									{
										OFFSET -0.69188 -0.00000 0.00000
										CHANNELS 3 Zrotation Yrotation Xrotation
										End Site
										{
											OFFSET -0.55781 -0.00000 0.00000
										}
									}
								}
								JOINT RThumb
								{
									OFFSET 0 0 0
									CHANNELS 3 Zrotation Yrotation Xrotation
									End Site
									{
										OFFSET -0.56633 -0.00000 0.56633
									}
								}
							}
						}
					}
				}
			}
		}
	}
}
MOTION
Frames: 15
Frame Time: .0083333
0.0945 17.7182 7.8297 -9.6835 -25.5754 27.3728 0.0000 0.0000 0.0000 -5.3093 -37.8298 0.1218 0.0153 -0.7994 -2.1969 6.4785 39.0734 -68.1459 3.8854 12.0064 35.7546 0.0000 0.0000 0.0000 13.3082 36.8871 -24.2377 -0.3362 -3.7264 10.3083 0.0653 -6.5983 -7.5148 -0.2676 3.3276 -9.1923 4.3075 -1.2368 15.5160 5.1334 -1.2428 9.2758 3.1476 -0.6849 1.2085 -13.8699 -17.7848 10.0843 19.6645 -26.8634 12.5428 6.7407 -13.3766 6.8394 -0.0000 -0.0000 0.0000 -76.9100 -17.9924 80.2536 104.2177 -59.2222 -72.2808 -0.0000 0.0000 -32.4690 16.6592 -1.8443 -0.5518 -7.1250 0.0000 -0.0000 -7.6553 28.0259 3.1868 -0.0000 -0.0000 0.0000 -8.4740 73.7225 7.9022 -17.3715 27.3449 -4.2566 0.0000 -0.0000 -7.3189 80.3850 -28.7770 -70.6129 7.1250 -0.0000 -0.0000 71.1882 -43.9432 4.8024
0.0893 17.7193 7.8238 -9.6869 -25.4712 27.3743 0.0000 0.0000 0.0000 -5.1746 -37.6676 -0.0584 0.0149 -0.7890 -2.1684 6.1870 39.2254 -67.7011 3.8075 11.8997 35.3782 0.0000 0.0000 0.0000 13.3215 36.9409 -24.2163 -0.3345 -3.7170 10.2819 0.0692 -6.6943 -7.5575 -0.2857 3.4374 -9.4990 4.1761 -1.1855 15.4630 5.0930 -1.2019 9.3511 3.1709 -0.6677 1.3163 -13.7792 -17.8102 10.0833 19.6086 -26.8905 12.6241 6.7080 -13.3840 6.8501 0.0000 0.0000 0.0000 -76.7132 -18.1835 80.2002 104.0312 -59.2429 -72.1205 -0.0000 0.0000 -31.6300 15.9578 -1.1790 -0.3371 -7.1250 0.0000 -0.0000 -8.2438 28.7132 3.3008 0.0000 0.0000 0.0000 -8.7170 72.6371 12.2282 -19.2032 29.6704 -5.1310 0.0000 -0.0000 -11.3840 80.1583 -28.7484 -70.1660 7.1250 -0.0000 -0.0000 70.9501 -43.8610 5.1326
0.0856 17.7196 7.8190 -9.7280 -25.2859 27.3646 0.0000 0.0000 0.0000 -5.0471 -37.7736 -0.0686 0.0147 -0.7841 -2.1551 6.0529 39.3563 -67.5393 3.7520 11.8229 35.1083 0.0000 0.0000 0.0000 13.4156 36.9293 -24.1713 -0.3342 -3.7153 10.2769 0.0706 -6.7620 -7.6340 -0.2832 3.4223 -9.4568 4.3682 -1.1058 15.4918 4.9521 -1.0753 9.3964 2.8959 -0.5917 1.3407 -13.2851 -18.0506 10.0341 19.2275 -27.1114 12.6968 6.4954 -13.4710 6.7969 -0.0000 0.0000 0.0000 -76.3402 -18.3941 80.4880 103.9528 -59.2515 -72.0531 -0.0000 0.0000 -31.4946 15.8567 -0.8037 -0.2283 -7.1250 0.0000 -0.0000 -8.3518 29.0990 3.2675 -0.0000 0.0000 0.0000 -10.0220 71.1285 16.0982 -21.4093 32.3030 -6.2673 0.0000 -0.0000 -16.3727 79.9032 -28.6043 -69.5977 7.1250 -0.0000 -0.0000 70.3121 -43.6227 6.0748
0.0834 17.7197 7.8155 -9.7932 -25.0458 27.3289 0.0000 0.0000 0.0000 -4.9882 -38.2083 0.1729 0.0151 -0.7932 -2.1800 6.1319 39.5179 -67.8018 3.7404 11.8067 35.0517 0.0000 0.0000 0.0000 13.5861 36.8334 -24.0906 -0.3347 -3.7180 10.2845 0.0700 -6.7920 -7.7082 -0.2594 3.2770 -9.0510 3.9808 -1.2296 15.6263 5.1787 -1.2721 9.3853 3.3863 -0.7139 1.2750 -13.5902 -18.0196 9.9130 18.7300 -27.0440 12.9285 6.3692 -13.4407 6.8471 -0.0000 0.0000 0.0000 -76.5381 -18.0910 79.9468 103.8405 -59.2637 -71.9566 -0.0000 0.0000 -31.4317 15.8390 -0.5941 -0.1686 -7.1250 0.0000 -0.0000 -8.3827 29.3145 3.2364 -0.0000 0.0000 0.0000 -13.4204 70.3444 18.9701 -23.9466 35.1078 -7.6758 0.0000 -0.0000 -22.4908 79.8035 -28.3654 -69.2638 7.1250 -0.0000 -0.0000 69.4528 -43.2779 7.3866
0.0799 17.7194 7.8131 -9.9072 -24.7887 27.3271 0.0000 0.0000 0.0000 -4.9086 -38.8630 0.5637 0.0164 -0.8263 -2.2709 6.4420 39.6509 -68.4700 3.7801 11.8619 35.2451 0.0000 0.0000 0.0000 13.8108 36.7358 -24.0268 -0.3350 -3.7196 10.2891 0.0694 -6.8156 -7.7719 -0.2416 3.1631 -8.7330 3.8724 -1.2984 15.6978 5.2683 -1.3674 9.3726 3.5587 -0.7689 1.2320 -13.7337 -18.0721 9.8826 18.5352 -27.1176 13.0793 6.3072 -13.4776 6.9053 -0.0000 0.0000 0.0000 -76.5226 -17.8520 79.6994 103.7900 -59.2691 -71.9132 -0.0000 0.0000 -31.5759 15.8031 -0.4107 -0.1162 -7.1250 0.0000 -0.0000 -8.4260 29.5028 3.2153 -0.0000 0.0000 0.0000 -14.1072 69.7121 21.0542 -26.2161 37.4213 -9.0186 0.0000 -0.0000 -26.0792 80.3875 -27.6852 -69.9721 7.1250 -0.0000 -0.0000 67.5079 -42.4043 10.4768
0.0746 17.7183 7.8098 -10.1156 -24.5377 27.3928 0.0000 0.0000 0.0000 -4.6645 -39.4172 0.8635 0.0178 -0.8613 -2.3672 6.7679 39.6959 -69.0967 3.8274 11.9272 35.4748 0.0000 0.0000 0.0000 14.1153 36.6871 -24.0070 -0.3359 -3.7245 10.3029 0.0701 -6.8441 -7.8002 -0.2354 3.1226 -8.6203 3.9519 -1.3389 15.7164 5.2824 -1.4063 9.3543 3.5353 -0.7854 1.2033 -13.8330 -18.0865 10.0455 18.6668 -27.1719 13.0402 6.3676 -13.5182 6.9102 -0.0000 0.0000 0.0000 -76.3533 -17.5761 79.5916 103.8572 -59.2619 -71.9709 -0.0000 0.0000 -31.7695 15.8155 -0.2980 -0.0844 -7.1250 0.0000 -0.0000 -8.4259 29.6187 3.1917 -0.0000 0.0000 0.0000 -11.1118 69.4135 22.8031 -28.1272 39.2331 -10.2040 0.0000 -0.0000 -26.0168 82.0503 -26.5756 -72.6647 7.1250 -0.0000 -0.0000 64.9033 -41.0613 14.6583
0.0699 17.7183 7.8062 -10.2875 -24.3357 27.4559 0.0000 0.0000 0.0000 -4.4708 -40.0287 1.1828 0.0191 -0.8934 -2.4556 7.1421 39.7560 -69.8111 3.8643 11.9776 35.6529 0.0000 0.0000 0.0000 14.3659 36.6237 -24.0267 -0.3382 -3.7372 10.3384 0.0696 -6.8340 -7.7976 -0.2373 3.1350 -8.6548 3.8956 -1.3964 15.7597 5.3215 -1.4820 9.3329 3.6212 -0.8266 1.1628 -13.9383 -18.0961 10.1437 18.6706 -27.1870 12.9524 6.3894 -13.5403 6.8840 -0.0000 -0.0000 0.0000 -76.1579 -17.1952 79.7324 103.7655 -59.2718 -71.8921 -0.0000 0.0000 -33.4338 17.3889 -2.2949 -0.7185 -7.1250 0.0000 -0.0000 -7.0673 27.5541 3.0177 -0.0000 -0.0000 0.0000 -12.3298 68.8659 24.0026 -30.8627 41.6214 -11.9785 0.0000 -0.0000 -29.0700 82.4122 -26.2803 -73.2552 7.1250 -0.0000 -0.0000 64.2066 -40.6712 15.7562
0.0660 17.7196 7.8046 -10.3424 -24.1824 27.4707 0.0000 0.0000 0.0000 -4.4826 -40.7844 1.6105 0.0203 -0.9209 -2.5313 7.6439 39.8201 -70.7411 3.9188 12.0515 35.9145 0.0000 0.0000 0.0000 14.4613 36.5928 -24.0259 -0.3389 -3.7410 10.3491 0.0699 -6.8631 -7.8412 -0.2298 3.0856 -8.5172 3.6972 -1.4766 15.7884 5.3497 -1.6063 9.3148 3.7824 -0.8971 1.1381 -13.9698 -18.1678 10.0328 18.2840 -27.2335 13.0617 6.2529 -13.5606 6.8922 -0.0000 -0.0000 0.0000 -76.0554 -16.8859 79.2552 103.8995 -59.2573 -72.0073 -0.0000 0.0000 -33.0132 16.3262 -1.3489 -0.3951 -7.1250 0.0000 -0.0000 -7.9465 28.5384 3.2128 -0.0000 -0.0000 0.0000 -14.7782 68.3657 24.6068 -34.0944 44.1546 -14.1788 0.0000 -0.0000 -32.2103 83.0332 -25.1350 -73.9501 7.1250 -0.0000 -0.0000 61.1099 -38.7405 20.6118
0.0618 17.7204 7.8029 -10.3764 -24.0760 27.4739 0.0000 0.0000 0.0000 -4.5466 -41.4355 2.0068 0.0210 -0.9362 -2.5734 8.2445 39.6511 -71.6906 4.0310 12.2016 36.4488 0.0000 0.0000 0.0000 14.5073 36.6126 -24.0309 -0.3404 -3.7489 10.3713 0.0691 -6.8941 -7.9240 -0.2032 2.9028 -8.0082 3.5570 -1.5479 15.7907 5.3055 -1.7153 9.3145 3.8304 -0.9551 1.1424 -13.9895 -18.2404 9.9259 17.9931 -27.2788 13.0647 6.1471 -13.5834 6.8776 -0.0000 0.0000 0.0000 -75.7775 -16.5624 79.2020 103.9257 -59.2544 -72.0298 -0.0000 0.0000 -33.7794 16.9277 -2.3199 -0.7058 -7.1250 0.0000 -0.0000 -7.4190 27.5319 3.1741 -0.0000 0.0000 0.0000 -17.0981 67.8285 24.8093 -37.7746 46.6947 -16.8013 0.0000 -0.0000 -34.9611 84.2449 -22.9498 -75.5078 7.1250 -0.0000 -0.0000 56.0271 -34.6707 28.6782
0.0565 17.7206 7.8002 -10.4504 -24.0121 27.4894 0.0000 0.0000 0.0000 -4.5667 -41.9240 2.3519 0.0218 -0.9541 -2.6224 8.7968 39.4227 -72.5185 4.1438 12.3493 36.9791 0.0000 0.0000 0.0000 14.6220 36.5939 -24.0570 -0.3447 -3.7727 10.4379 0.0630 -6.8171 -7.9847 -0.1754 2.6979 -7.4388 3.4964 -1.6016 15.7986 5.2193 -1.7918 9.3183 3.7840 -0.9926 1.1434 -14.1771 -18.2023 9.9792 18.2150 -27.2471 12.8199 6.2484 -13.5864 6.8434 -0.0000 -0.0000 0.0000 -75.4680 -16.3309 79.0266 103.9054 -59.2566 -72.0124 -0.0000 0.0000 -33.7815 16.7135 -2.3758 -0.7131 -7.1250 0.0000 -0.0000 -7.5795 27.4757 3.2540 -0.0000 -0.0000 0.0000 -16.6155 67.4735 25.2388 -41.3548 48.8524 -19.4533 0.0000 -0.0000 -35.7205 85.0944 -22.8269 -77.5251 7.1250 -0.0000 -0.0000 56.4214 -35.0725 27.8934
0.0505 17.7204 7.7980 -10.5315 -23.9643 27.4970 0.0000 0.0000 0.0000 -4.6179 -42.4589 2.7104 0.0212 -0.9396 -2.5827 9.2547 39.4010 -73.2904 4.1837 12.4009 37.1655 0.0000 0.0000 0.0000 14.7716 36.5663 -24.0346 -0.3478 -3.7893 10.4848 0.0558 -6.7115 -8.0293 -0.1567 2.5509 -7.0307 3.4178 -1.6315 15.8195 5.1500 -1.8374 9.3055 3.7621 -1.0158 1.1195 -14.6658 -18.0423 10.2245 18.8601 -27.1592 12.5633 6.5414 -13.5795 6.8704 -0.0000 0.0000 0.0000 -75.2064 -16.1629 78.9344 103.7653 -59.2718 -71.8919 -0.0000 0.0000 -33.8031 16.4562 -2.1304 -0.6291 -7.1250 0.0000 -0.0000 -7.7922 27.7311 3.2995 -0.0000 0.0000 0.0000 -18.0472 66.8687 25.2815 -46.0981 51.2952 -23.0926 0.0000 -0.0000 -38.1146 85.4709 -22.6261 -78.3655 7.1250 -0.0000 -0.0000 56.2620 -34.9436 28.0789
0.0438 17.7200 7.7962 -10.5981 -23.9516 27.4841 0.0000 0.0000 0.0000 -4.6664 -42.7554 2.9674 0.0205 -0.9236 -2.5387 9.4827 39.4801 -73.7163 4.1772 12.3925 37.1350 0.0000 0.0000 0.0000 14.9193 36.5508 -23.9717 -0.3491 -3.7964 10.5045 0.0508 -6.6219 -8.0329 -0.1496 2.4926 -6.8691 3.3234 -1.6070 15.8617 5.0742 -1.8150 9.3145 3.7326 -1.0059 1.1049 -14.9494 -17.9982 10.3451 19.1735 -27.1599 12.4030 6.6829 -13.6008 6.8865 -0.0000 0.0000 0.0000 -74.9548 -16.1052 78.9782 103.6521 -59.2839 -71.7946 -0.0000 0.0000 -33.8379 16.1926 -1.9534 -0.5671 -7.1250 0.0000 -0.0000 -8.0063 27.9150 3.3567 -0.0000 0.0000 0.0000 -19.5220 66.1231 24.9230 -51.7205 53.6663 -27.5542 0.0000 -0.0000 -40.8130 86.0187 -22.6870 -79.7710 7.1250 -0.0000 -0.0000 56.9466 -35.5851 26.8802
0.0385 17.7189 7.7946 -10.6653 -23.9546 27.5030 0.0000 0.0000 0.0000 -4.5385 -42.4822 2.8936 0.0219 -0.9553 -2.6259 9.2732 39.5658 -73.4058 4.1548 12.3636 37.0307 0.0000 0.0000 0.0000 15.0437 36.5112 -23.9672 -0.3504 -3.8031 10.5233 0.0469 -6.5277 -7.9975 -0.1469 2.4703 -6.8072 3.1634 -1.5836 15.9409 5.0463 -1.7975 9.2897 3.7938 -1.0024 1.0388 -14.8582 -18.1194 10.2101 18.6544 -27.2147 12.3853 6.4898 -13.6234 6.8216 -0.0000 0.0000 0.0000 -74.7834 -15.9980 79.0029 103.6009 -59.2894 -71.7506 -0.0000 0.0000 -33.9141 16.1531 -1.9648 -0.5690 -7.1250 0.0000 -0.0000 -8.0359 27.9034 3.3715 -0.0000 0.0000 0.0000 -21.1754 65.4517 24.2496 -58.1704 55.8024 -32.8233 0.0000 -0.0000 -44.0689 86.4308 -23.7499 -81.1963 7.1250 -0.0000 -0.0000 60.2466 -38.1992 21.6878
0.0368 17.7186 7.7931 -10.6897 -23.9434 27.5441 0.0000 0.0000 0.0000 -4.4163 -42.3004 2.7365 0.0222 -0.9629 -2.6468 9.1278 39.5798 -73.1669 4.1432 12.3485 36.9763 0.0000 0.0000 0.0000 15.0834 36.4280 -24.0162 -0.3488 -3.7948 10.5001 0.0439 -6.4377 -7.9402 -0.1464 2.4654 -6.7938 2.9619 -1.5722 16.0344 5.0503 -1.7960 9.2146 3.9159 -1.0087 0.9142 -15.0058 -18.2140 10.1326 18.2748 -27.2789 12.3461 6.3705 -13.6614 6.7970 -0.0000 -0.0000 0.0000 -74.7114 -15.8619 78.7572 103.5811 -59.2915 -71.7336 -0.0000 0.0000 -33.0075 14.8190 -1.0153 -0.2686 -7.1250 0.0000 -0.0000 -9.1375 28.8775 3.6305 -0.0000 -0.0000 0.0000 -22.8014 64.8236 23.6862 -65.2386 57.5515 -38.7323 0.0000 -0.0000 -47.0516 86.6137 -24.7877 -81.9666 7.1250 -0.0000 -0.0000 63.5571 -40.3180 16.6625
0.0351 17.7209 7.7916 -10.6586 -23.9180 27.5526 0.0000 0.0000 0.0000 -4.3987 -42.3711 2.6744 0.0214 -0.9446 -2.5965 9.1684 39.5515 -73.2210 4.1483 12.3552 37.0002 0.0000 0.0000 0.0000 15.0596 36.3654 -24.0335 -0.3454 -3.7762 10.4479 0.0442 -6.4164 -7.8956 -0.1427 2.4343 -6.7074 2.6804 -1.5828 16.1292 5.0831 -1.8359 9.1680 4.1204 -1.0398 0.8255 -15.5642 -18.1571 10.2170 18.4403 -27.2557 12.1753 6.4939 -13.6785 6.8278 0.0000 -0.0000 0.0000 -74.6528 -15.7019 78.8804 103.5121 -59.2988 -71.6743 -0.0000 0.0000 -33.6860 19.2045 -4.5092 -1.5687 -7.1250 0.0000 -0.0000 -5.5957 25.2040 2.6922 0.0000 -0.0000 0.0000 -24.6639 64.1762 23.1057 -73.0896 58.8914 -45.4097 0.0000 -0.0000 -49.9811 86.5487 -26.2729 -82.2413 7.1250 -0.0000 -0.0000 68.3452 -42.7091 9.5622
